# xmcd
#
# Track frame offsets: 
#        150
#        12068
#        24841
#        34898
#        46689
#        55297
#        64051
#        74631
#        86275
#        99974
#        113105
#        126726
#        140660
#        154748
#        168488
#        181176
#        197031
#        209780
#        220611
#        231412
#
# Disc length: 3289 seconds
#
# Revision: 1
# Processed by: cddbd v1.5.2PL0 Copyright (c) Steve Scherf et al.
# Submitted via: ExactAudioCopy v0.99pb4
#
DISCID=1d0cd714
DTITLE=Dusty Springfield - The Dusty Springfield Story - Disc 1
DYEAR=2006
DGENRE=Popular
TTITLE0=The Springfields - Island Of Dreams
TTITLE1=The Springfields - Say I Won't Be There
TTITLE2=The Springfields - Silver Threads And Golden Needles
TTITLE3=I Only Want To Be With You
TTITLE4=Once Upon A Time
TTITLE5=Stay A While
TTITLE6=Something Special
TTITLE7=Mockingbird
TTITLE8=I Just Don't Know What To Do With Myself
TTITLE9=Wishin' And Hopin'
TTITLE10=Losing You
TTITLE11=Twenty Four Hours From Tulsa
TTITLE12=Anyone Who Had A Heart
TTITLE13=Some Of Your Lovin'
TTITLE14=In The Middle Of Nowhere
TTITLE15=Goin' Back
TTITLE16=You Don't Have To Say You Love Me
TTITLE17=Little By Little
TTITLE18=If It Hadn't Been For You
TTITLE19=All I See Is You
EXTD=YEAR: 2006
EXTT0=
EXTT1=
EXTT2=
EXTT3=
EXTT4=
EXTT5=
EXTT6=
EXTT7=
EXTT8=
EXTT9=
EXTT10=
EXTT11=
EXTT12=
EXTT13=
EXTT14=
EXTT15=
EXTT16=
EXTT17=
EXTT18=
EXTT19=
PLAYORDER=
